<svg width="41" height="38" viewBox="0 0 41 38" fill="none" xmlns="http://www.w3.org/2000/svg">
<path d="M36.898 22.6554H34.3667L32.1353 18.9205C30.489 16.1672 26.6627 14.0114 23.4221 14.0114H17.6505C14.3532 14.0114 10.9926 16.5714 10.1596 19.717L7.9743 27.9649C7.93133 28.1292 7.89981 28.2935 7.86901 28.4585C5.01833 28.1648 2.42851 26.6712 2.42851 23.7261C2.42851 21.0851 4.14851 19.2021 7.83964 17.8021C9.77066 17.0714 12.0383 15.2676 12.4376 13.3616C12.6242 12.4764 12.3796 11.6747 11.7353 11.0372L12.0677 10.7479C13.6771 8.89241 13.8562 6.37797 12.4118 4.95539L8.81482 1.40845L7.32287 2.87875L4.69609 0.287275C4.50832 0.10318 4.25434 0 3.98965 0C3.72492 0 3.47094 0.10318 3.28317 0.287275C3.19024 0.378793 3.11654 0.487621 3.06622 0.607407C3.01594 0.727193 2.99005 0.855459 2.99005 0.985139C2.99005 1.11446 3.01594 1.24309 3.06622 1.36252C3.11654 1.48231 3.19024 1.59113 3.28317 1.68265L5.91031 4.272L4.83121 5.33629L2.2054 2.74553C2.11271 2.65401 2.00262 2.58122 1.88143 2.53175C1.76024 2.48193 1.63035 2.45649 1.49914 2.45649C1.36795 2.45649 1.23806 2.48193 1.11687 2.53175C0.995683 2.58122 0.885595 2.65401 0.792912 2.74553C0.70005 2.83669 0.626383 2.94553 0.576138 3.06496C0.525857 3.18439 0.5 3.31266 0.5 3.44198C0.5 3.57131 0.525857 3.69958 0.576138 3.81901C0.626383 3.9388 0.70005 4.04727 0.792912 4.13879L3.41873 6.72991H3.42095L1.92806 8.20055L5.52497 11.7496C6.18278 12.3994 7.07257 12.7143 8.02336 12.7143C8.91116 12.7143 9.85518 12.4393 10.7143 11.9019L10.8941 11.7687L10.9922 11.6835C11.0005 11.692 11.0023 11.704 11.0123 11.7125C11.4327 12.1185 11.5803 12.5938 11.4596 13.1623C11.1756 14.5121 9.42937 16.1474 7.48009 16.8841C4.88274 17.8672 1.42805 19.648 1.42805 23.7261C1.42805 27.3041 4.46363 29.1062 7.78413 29.439C7.78485 30.5097 8.10609 31.5033 8.74893 32.3238C9.67934 33.5132 11.1301 34.1672 12.8323 34.1672H13.3981C13.6073 36.3128 15.4219 38 17.6509 38C19.8777 38 21.6934 36.3124 21.9022 34.1672H27.813C28.0222 36.3128 29.8368 38 32.0643 38C34.2919 38 36.1072 36.3124 36.316 34.1672H36.898C38.8841 34.1672 40.5 32.5736 40.5 30.6143V26.2087C40.5 24.249 38.8838 22.6554 36.898 22.6554ZM10.6294 9.37085L9.62777 10.2394L9.58229 10.2751C9.07554 10.5772 8.52474 10.7415 8.02265 10.7415C7.70642 10.7415 7.26163 10.6747 6.93746 10.356L4.75475 8.20055L5.16319 7.79844L5.74898 7.2193L5.91476 7.05499L7.65378 5.34089L8.40548 4.59956L8.81375 4.19533L10.9983 6.35076C11.6494 6.98997 11.4775 8.32493 10.6294 9.37085ZM17.6505 37.0152C15.8337 37.0152 14.3561 35.5594 14.3561 33.7679C14.3561 31.9768 15.833 30.5185 17.6505 30.5185C19.4666 30.5185 20.9438 31.9768 20.9438 33.7679C20.9438 35.5594 19.4666 37.0152 17.6505 37.0152ZM32.0643 37.0152C30.2483 37.0152 28.7703 35.5594 28.7703 33.7679C28.7703 31.9768 30.2483 30.5185 32.0643 30.5185C33.8804 30.5185 35.3573 31.9768 35.3573 33.7679C35.3573 35.5594 33.88 37.0152 32.0643 37.0152ZM38.5027 30.6143C38.502 31.0337 38.3326 31.4358 38.0318 31.7326C37.731 32.0294 37.3234 32.1962 36.898 32.1973H36.0435C35.4103 30.6387 33.8686 29.533 32.0643 29.533C30.2605 29.533 28.7195 30.6387 28.0849 32.1973H21.6282C20.9947 30.6387 19.454 29.533 17.6505 29.533C15.8459 29.533 14.3056 30.6387 13.6714 32.1973H12.8319C11.7618 32.1973 10.8744 31.8157 10.3304 31.1199C9.78785 30.4263 9.63779 29.4832 9.90818 28.462L12.0927 20.2155C12.6998 17.9205 15.245 15.9813 17.6505 15.9813H23.4221C25.935 15.9813 29.136 17.7869 30.4137 19.9219L33.2254 24.6257H36.8976C37.3227 24.6264 37.7306 24.7932 38.0314 25.09C38.3323 25.3865 38.5017 25.7886 38.5024 26.2083V30.6143H38.5027ZM28.9179 21.1911C27.7604 19.1961 24.8528 17.5085 22.5679 17.5085H18.8509C16.6689 17.5085 14.3597 19.3166 13.806 21.466L13.0783 24.5427C13.0439 24.6907 13.0783 24.8448 13.1736 24.9614C13.2688 25.0801 13.4121 25.149 13.565 25.149H30.4245C30.4693 25.2232 30.533 25.2847 30.6093 25.3271C30.6856 25.3695 30.7719 25.3914 30.8593 25.3907C30.947 25.3896 31.0329 25.3663 31.1081 25.3225C31.1837 25.2787 31.2464 25.2161 31.2897 25.1412C31.3331 25.066 31.3556 24.9812 31.3553 24.8946C31.3549 24.8084 31.3313 24.7236 31.2872 24.6487C31.2432 24.5741 31.1801 24.5123 31.1042 24.4692C31.0283 24.426 30.9423 24.4034 30.8546 24.4034L28.9179 21.1911ZM14.7776 21.6992C15.2167 19.9912 17.1201 18.4936 18.8509 18.4936H19.3745L18.0695 24.1614H14.1949L14.7776 21.6992ZM19.0941 24.1614L20.3998 18.4936H22.5679C24.4692 18.4936 27.0835 20.0141 28.0551 21.6886L29.5471 24.1614H19.0941ZM27.1906 11.2351L28.0383 4.67624C28.0562 4.54691 28.125 4.4296 28.2295 4.34974C28.3345 4.26988 28.4666 4.23384 28.598 4.24904C28.8717 4.2826 29.0658 4.53066 29.031 4.79885L28.1837 11.3599C28.1672 11.4786 28.1081 11.5874 28.0168 11.6662C27.9255 11.7454 27.8084 11.7888 27.687 11.7892C27.6662 11.7892 27.644 11.7892 27.6236 11.7871C27.4922 11.7701 27.3725 11.7026 27.2916 11.5991C27.2103 11.4959 27.1741 11.3648 27.1906 11.2351ZM30.9248 12.622L34.6214 6.60483C34.6923 6.49741 34.8026 6.42179 34.929 6.39317C35.0554 6.3649 35.1879 6.3861 35.2989 6.45218C35.41 6.51825 35.4905 6.62461 35.5235 6.74828C35.5568 6.87195 35.54 7.0034 35.4766 7.11506L31.78 13.1347C31.7109 13.2464 31.5999 13.3263 31.4713 13.3577C31.3427 13.3888 31.2066 13.3687 31.0928 13.3012C30.9796 13.233 30.8987 13.1231 30.8671 12.9959C30.8356 12.8687 30.8564 12.7344 30.9248 12.622ZM33.7676 15.3884L39.2165 11.6454C39.2702 11.6083 39.3311 11.5821 39.3948 11.568C39.4589 11.5542 39.5252 11.5528 39.5896 11.5644C39.6545 11.5758 39.7161 11.5998 39.7712 11.6348C39.8264 11.6697 39.874 11.715 39.9112 11.768C39.9488 11.821 39.9753 11.881 39.9897 11.9443C40.0036 12.0072 40.0051 12.0726 39.9932 12.1362C39.9818 12.1998 39.9578 12.2609 39.9223 12.3153C39.8869 12.3697 39.8407 12.4164 39.787 12.4535L34.3374 16.1965C34.2511 16.2548 34.1515 16.2841 34.0519 16.2841C33.894 16.2841 33.7397 16.211 33.6426 16.0736C33.605 16.0206 33.5785 15.9608 33.5642 15.8976C33.5502 15.8343 33.5488 15.769 33.5602 15.7054C33.5721 15.6418 33.5964 15.581 33.6319 15.5266C33.6673 15.4721 33.7135 15.4252 33.7676 15.3884ZM36.898 22.6554H34.3667L32.1353 18.9205C30.489 16.1672 26.6627 14.0114 23.4221 14.0114H17.6505C14.3532 14.0114 10.9926 16.5714 10.1596 19.717L7.9743 27.9649C7.93133 28.1292 7.89981 28.2935 7.86901 28.4585C5.01833 28.1648 2.42851 26.6712 2.42851 23.7261C2.42851 21.0851 4.14851 19.2021 7.83964 17.8021C9.77066 17.0714 12.0383 15.2676 12.4376 13.3616C12.6242 12.4764 12.3796 11.6747 11.7353 11.0372L12.0677 10.7479C13.6771 8.89241 13.8562 6.37797 12.4118 4.95539L8.81482 1.40845L7.32287 2.87875L4.69609 0.287275C4.50832 0.10318 4.25434 0 3.98965 0C3.72492 0 3.47094 0.10318 3.28317 0.287275C3.19024 0.378793 3.11654 0.487621 3.06622 0.607407C3.01594 0.727193 2.99005 0.855459 2.99005 0.985139C2.99005 1.11446 3.01594 1.24309 3.06622 1.36252C3.11654 1.48231 3.19024 1.59113 3.28317 1.68265L5.91031 4.272L4.83121 5.33629L2.2054 2.74553C2.11271 2.65401 2.00262 2.58122 1.88143 2.53175C1.76024 2.48193 1.63035 2.45649 1.49914 2.45649C1.36795 2.45649 1.23806 2.48193 1.11687 2.53175C0.995683 2.58122 0.885595 2.65401 0.792912 2.74553C0.70005 2.83669 0.626383 2.94553 0.576138 3.06496C0.525857 3.18439 0.5 3.31266 0.5 3.44198C0.5 3.57131 0.525857 3.69958 0.576138 3.81901C0.626383 3.9388 0.70005 4.04727 0.792912 4.13879L3.41873 6.72991H3.42095L1.92806 8.20055L5.52497 11.7496C6.18278 12.3994 7.07257 12.7143 8.02336 12.7143C8.91116 12.7143 9.85518 12.4393 10.7143 11.9019L10.8941 11.7687L10.9922 11.6835C11.0005 11.692 11.0023 11.704 11.0123 11.7125C11.4327 12.1185 11.5803 12.5938 11.4596 13.1623C11.1756 14.5121 9.42937 16.1474 7.48009 16.8841C4.88274 17.8672 1.42805 19.648 1.42805 23.7261C1.42805 27.3041 4.46363 29.1062 7.78413 29.439C7.78485 30.5097 8.10609 31.5033 8.74893 32.3238C9.67934 33.5132 11.1301 34.1672 12.8323 34.1672H13.3981C13.6073 36.3128 15.4219 38 17.6509 38C19.8777 38 21.6934 36.3124 21.9022 34.1672H27.813C28.0222 36.3128 29.8368 38 32.0643 38C34.2919 38 36.1072 36.3124 36.316 34.1672H36.898C38.8841 34.1672 40.5 32.5736 40.5 30.6143V26.2087C40.5 24.249 38.8838 22.6554 36.898 22.6554ZM10.6294 9.37085L9.62777 10.2394L9.58229 10.2751C9.07554 10.5772 8.52474 10.7415 8.02265 10.7415C7.70642 10.7415 7.26163 10.6747 6.93746 10.356L4.75475 8.20055L5.16319 7.79844L5.74898 7.2193L5.91476 7.05499L7.65378 5.34089L8.40548 4.59956L8.81375 4.19533L10.9983 6.35076C11.6494 6.98997 11.4775 8.32493 10.6294 9.37085ZM17.6505 37.0152C15.8337 37.0152 14.3561 35.5594 14.3561 33.7679C14.3561 31.9768 15.833 30.5185 17.6505 30.5185C19.4666 30.5185 20.9438 31.9768 20.9438 33.7679C20.9438 35.5594 19.4666 37.0152 17.6505 37.0152ZM32.0643 37.0152C30.2483 37.0152 28.7703 35.5594 28.7703 33.7679C28.7703 31.9768 30.2483 30.5185 32.0643 30.5185C33.8804 30.5185 35.3573 31.9768 35.3573 33.7679C35.3573 35.5594 33.88 37.0152 32.0643 37.0152ZM38.5027 30.6143C38.502 31.0337 38.3326 31.4358 38.0318 31.7326C37.731 32.0294 37.3234 32.1962 36.898 32.1973H36.0435C35.4103 30.6387 33.8686 29.533 32.0643 29.533C30.2605 29.533 28.7195 30.6387 28.0849 32.1973H21.6282C20.9947 30.6387 19.454 29.533 17.6505 29.533C15.8459 29.533 14.3056 30.6387 13.6714 32.1973H12.8319C11.7618 32.1973 10.8744 31.8157 10.3304 31.1199C9.78785 30.4263 9.63779 29.4832 9.90818 28.462L12.0927 20.2155C12.6998 17.9205 15.245 15.9813 17.6505 15.9813H23.4221C25.935 15.9813 29.136 17.7869 30.4137 19.9219L33.2254 24.6257H36.8976C37.3227 24.6264 37.7306 24.7932 38.0314 25.09C38.3323 25.3865 38.5017 25.7886 38.5024 26.2083V30.6143H38.5027ZM28.9179 21.1911C27.7604 19.1961 24.8528 17.5085 22.5679 17.5085H18.8509C16.6689 17.5085 14.3597 19.3166 13.806 21.466L13.0783 24.5427C13.0439 24.6907 13.0783 24.8448 13.1736 24.9614C13.2688 25.0801 13.4121 25.149 13.565 25.149H30.4245C30.4693 25.2232 30.533 25.2847 30.6093 25.3271C30.6856 25.3695 30.7719 25.3914 30.8593 25.3907C30.947 25.3896 31.0329 25.3663 31.1081 25.3225C31.1837 25.2787 31.2464 25.2161 31.2897 25.1412C31.3331 25.066 31.3556 24.9812 31.3553 24.8946C31.3549 24.8084 31.3313 24.7236 31.2872 24.6487C31.2432 24.5741 31.1801 24.5123 31.1042 24.4692C31.0283 24.426 30.9423 24.4034 30.8546 24.4034L28.9179 21.1911ZM14.7776 21.6992C15.2167 19.9912 17.1201 18.4936 18.8509 18.4936H19.3745L18.0695 24.1614H14.1949L14.7776 21.6992ZM19.0941 24.1614L20.3998 18.4936H22.5679C24.4692 18.4936 27.0835 20.0141 28.0551 21.6886L29.5471 24.1614H19.0941ZM27.1906 11.2351L28.0383 4.67624C28.0562 4.54691 28.125 4.4296 28.2295 4.34974C28.3345 4.26988 28.4666 4.23384 28.598 4.24904C28.8717 4.2826 29.0658 4.53066 29.031 4.79885L28.1837 11.3599C28.1672 11.4786 28.1081 11.5874 28.0168 11.6662C27.9255 11.7454 27.8084 11.7888 27.687 11.7892C27.6662 11.7892 27.644 11.7892 27.6236 11.7871C27.4922 11.7701 27.3725 11.7026 27.2916 11.5991C27.2103 11.4959 27.1741 11.3648 27.1906 11.2351ZM30.9248 12.622L34.6214 6.60483C34.6923 6.49741 34.8026 6.42179 34.929 6.39317C35.0554 6.3649 35.1879 6.3861 35.2989 6.45218C35.41 6.51825 35.4905 6.62461 35.5235 6.74828C35.5568 6.87195 35.54 7.0034 35.4766 7.11506L31.78 13.1347C31.7109 13.2464 31.5999 13.3263 31.4713 13.3577C31.3427 13.3888 31.2066 13.3687 31.0928 13.3012C30.9796 13.233 30.8987 13.1231 30.8671 12.9959C30.8356 12.8687 30.8564 12.7344 30.9248 12.622ZM33.7676 15.3884L39.2165 11.6454C39.2702 11.6083 39.3311 11.5821 39.3948 11.568C39.4589 11.5542 39.5252 11.5528 39.5896 11.5644C39.6545 11.5758 39.7161 11.5998 39.7712 11.6348C39.8264 11.6697 39.874 11.715 39.9112 11.768C39.9488 11.821 39.9753 11.881 39.9897 11.9443C40.0036 12.0072 40.0051 12.0726 39.9932 12.1362C39.9818 12.1998 39.9578 12.2609 39.9223 12.3153C39.8869 12.3697 39.8407 12.4164 39.787 12.4535L34.3374 16.1965C34.2511 16.2548 34.1515 16.2841 34.0519 16.2841C33.894 16.2841 33.7397 16.211 33.6426 16.0736C33.605 16.0206 33.5785 15.9608 33.5642 15.8976C33.5502 15.8343 33.5488 15.769 33.5602 15.7054C33.5721 15.6418 33.5964 15.581 33.6319 15.5266C33.6673 15.4721 33.7135 15.4252 33.7676 15.3884Z" fill="white"/>
</svg>
