<svg width="22" height="16" viewBox="0 0 22 16" fill="none" xmlns="http://www.w3.org/2000/svg">
<path d="M2.929 0.929001L4.343 2.343C2.895 3.791 2 5.791 2 8C2 10.21 2.895 12.21 4.343 13.657L2.93 15.07C1.119 13.261 0 10.761 0 8C0 5.239 1.12 2.739 2.929 0.929001ZM19.071 0.929001C20.881 2.739 22 5.239 22 8C22 10.761 20.88 13.262 19.071 15.071L17.657 13.657C19.105 12.209 20 10.209 20 8C20 5.791 19.105 3.792 17.658 2.344L19.07 0.930001L19.071 0.929001ZM12 1V7H15L10 15V9H7L12 1ZM5.757 3.757L7.172 5.172C6.448 5.895 6 6.895 6 8C6 9.105 6.448 10.105 7.172 10.828L5.757 12.243C4.672 11.157 4 9.657 4 8C4 6.343 4.672 4.843 5.757 3.757ZM16.244 3.758C17.329 4.844 18 6.344 18 8C18 9.657 17.328 11.157 16.243 12.243L14.828 10.828C15.552 10.105 16 9.105 16 8C16 6.896 15.553 5.896 14.83 5.173L16.244 3.758Z" fill="#9D9D9D"/>
</svg>
