<svg width="50" height="50" viewBox="0 0 50 50" fill="none" xmlns="http://www.w3.org/2000/svg">
<circle cx="24.9998" cy="25" r="25" fill="white"/>
<path d="M28.0349 17.3997H31.5388V28.6731C31.5388 29.9856 31.2576 31.0911 30.6951 31.9895C30.1404 32.8879 29.3708 33.5637 28.3865 34.0168C27.4099 34.47 26.2849 34.6965 25.0115 34.6965C23.738 34.6965 22.6052 34.47 21.613 34.0168C20.6287 33.5637 19.8552 32.8879 19.2927 31.9895C18.738 31.0911 18.4607 29.9856 18.4607 28.6731V17.3997H21.9763V28.6731C21.9763 29.4387 22.0974 30.0637 22.3396 30.5481C22.5818 31.0325 22.9294 31.3879 23.3826 31.6145C23.8435 31.8411 24.3865 31.9543 25.0115 31.9543C25.6521 31.9543 26.1951 31.8411 26.6404 31.6145C27.0935 31.3879 27.4373 31.0325 27.6716 30.5481C27.9138 30.0637 28.0349 29.4387 28.0349 28.6731V17.3997Z" fill="#298D74"/>
</svg>
