<svg width="24" height="24" viewBox="0 0 24 24" fill="none" xmlns="http://www.w3.org/2000/svg">
<g clip-path="url(#clip0_2_681)">
<path d="M17 21H7C5.58323 21.0009 4.21184 20.5004 3.12868 19.5872C2.04552 18.6739 1.32047 17.4069 1.0819 16.0103C0.843337 14.6138 1.10665 13.1779 1.82523 11.9568C2.5438 10.7358 3.67127 9.80847 5.008 9.33899C4.96271 8.39265 5.11001 7.44697 5.44096 6.55923C5.7719 5.67149 6.27962 4.86017 6.93334 4.17441C7.58707 3.48866 8.37319 2.94275 9.2441 2.56975C10.115 2.19675 11.0526 2.00443 12 2.00443C12.9474 2.00443 13.885 2.19675 14.7559 2.56975C15.6268 2.94275 16.4129 3.48866 17.0667 4.17441C17.7204 4.86017 18.2281 5.67149 18.559 6.55923C18.89 7.44697 19.0373 8.39265 18.992 9.33899C20.3287 9.80847 21.4562 10.7358 22.1748 11.9568C22.8933 13.1779 23.1567 14.6138 22.9181 16.0103C22.6795 17.4069 21.9545 18.6739 20.8713 19.5872C19.7881 20.5004 18.4168 21.0009 17 21ZM17 8.99999C17.0002 8.333 16.867 7.67269 16.6082 7.05796C16.3494 6.44323 15.9702 5.88649 15.493 5.42053C15.0157 4.95457 14.4501 4.58881 13.8293 4.34478C13.2086 4.10075 12.5453 3.98339 11.8785 3.9996C11.2117 4.01582 10.5548 4.16528 9.94669 4.43919C9.33853 4.7131 8.79132 5.10592 8.33728 5.59452C7.88325 6.08312 7.53156 6.65763 7.30292 7.28421C7.07429 7.9108 6.97333 8.5768 7.006 9.24299L7.076 10.731L5.672 11.225C4.7825 11.5396 4.03275 12.1583 3.55509 12.9719C3.07744 13.7856 2.90261 14.7418 3.06146 15.6718C3.22031 16.6018 3.70262 17.4458 4.42326 18.0548C5.1439 18.6637 6.05652 18.9985 7 19H17C17.7363 18.9998 18.4583 18.7963 19.0864 18.4119C19.7145 18.0276 20.2243 17.4774 20.5597 16.8219C20.8951 16.1663 21.043 15.431 20.9872 14.6967C20.9314 13.9625 20.674 13.258 20.2433 12.6607C19.8127 12.0634 19.2255 11.5966 18.5466 11.3116C17.8676 11.0267 17.1231 10.9347 16.3952 11.0458C15.6673 11.1569 14.9842 11.4667 14.4211 11.9412C13.858 12.4157 13.4369 13.0364 13.204 13.735L11.306 13.102C11.7048 11.9074 12.4693 10.8685 13.4912 10.1323C14.513 9.39613 15.7406 9 17 8.99999Z" fill="#298D74"/>
</g>
<defs>
<clipPath id="clip0_2_681">
<rect width="24" height="24" fill="white"/>
</clipPath>
</defs>
</svg>
